<svg width="17" height="18" viewBox="0 0 17 18" fill="none" xmlns="http://www.w3.org/2000/svg">
<path d="M6.95754 16.2915C7.7404 16.2915 8.37504 15.6569 8.37504 14.874C8.37504 14.0912 7.7404 13.4565 6.95754 13.4565C6.17468 13.4565 5.54004 14.0912 5.54004 14.874C5.54004 15.6569 6.17468 16.2915 6.95754 16.2915Z" stroke="#FFD673" stroke-width="1.5" stroke-linecap="round" stroke-linejoin="round"/>
<path d="M13.1333 16.2915C13.9162 16.2915 14.5508 15.6569 14.5508 14.874C14.5508 14.0912 13.9162 13.4565 13.1333 13.4565C12.3505 13.4565 11.7158 14.0912 11.7158 14.874C11.7158 15.6569 12.3505 16.2915 13.1333 16.2915Z" stroke="#FFD673" stroke-width="1.5" stroke-linecap="round" stroke-linejoin="round"/>
<path d="M3.67171 3.62909L5.34671 8.93242C5.60421 9.74742 5.73254 10.1549 5.98004 10.4566C6.19671 10.7233 6.47921 10.9291 6.79837 11.0566C7.16087 11.2008 7.58754 11.2008 8.44254 11.2008H11.655C12.51 11.2008 12.9367 11.2008 13.2984 11.0566C13.6184 10.9291 13.9 10.7233 14.1175 10.4566C14.3642 10.1549 14.4925 9.74742 14.7509 8.93242L15.0917 7.85242L15.2917 7.21409L15.5675 6.33909C15.666 6.027 15.6895 5.69612 15.6362 5.37325C15.583 5.05038 15.4544 4.7446 15.2609 4.48068C15.0674 4.21676 14.8145 4.00213 14.5226 3.85418C14.2307 3.70623 13.9081 3.62911 13.5809 3.62909H3.67171ZM3.67171 3.62909L3.66254 3.59825C3.62735 3.48038 3.58844 3.36366 3.54587 3.24825C3.37716 2.8212 3.09107 2.4506 2.72065 2.17927C2.35022 1.90794 1.91059 1.74696 1.45254 1.71492C1.36671 1.70825 1.27254 1.70825 1.08337 1.70825" stroke="#FFD673" stroke-width="1.5" stroke-linecap="round" stroke-linejoin="round"/>
</svg>
