<svg width="19" height="18" viewBox="0 0 19 18" fill="none" xmlns="http://www.w3.org/2000/svg">
<path d="M0.938965 0.0127258V13.4936H5.4326V17.9873H18.9135V4.50637H14.4199V0.0127258H0.938965ZM2.43684 1.51061H12.922V4.92802L5.85351 11.9958H2.43684V1.51061ZM6.18154 3.00849V3.75743H3.93472V5.25531H7.63299C7.53563 6.11509 7.27275 6.79438 6.83687 7.26846C6.60013 7.1922 6.37257 7.08997 6.15833 6.96364C5.63182 6.65058 5.4326 6.3173 5.4326 6.00425H3.93472C3.93472 6.89623 4.48445 7.63993 5.22215 8.13423C4.79824 8.21781 4.36676 8.25697 3.93472 8.25107V9.74895C5.2626 9.74895 6.36878 9.44487 7.21134 8.88317C7.60303 8.95057 8.00147 9 8.42836 9V7.59574C8.83504 6.91421 9.05148 6.11808 9.13087 5.25531H9.92624V3.75743H7.67942V3.00849H6.18154ZM13.999 6.00425H17.4156V16.4894H6.93048V13.072L13.999 6.00425ZM12.922 7.38529L12.2195 9.51528L10.7216 14.0089L10.6752 14.1257V14.9915H12.1731V14.3362L12.1963 14.2426H13.6477L13.6709 14.3362V14.9915H15.1688V14.1257L15.1216 14.0082L13.6238 9.51453L12.922 7.38529ZM12.922 12.0894L13.1325 12.7447H12.7116L12.922 12.0894Z" fill="black"/>
</svg>
