<svg width="24" height="24" viewBox="0 0 24 24" fill="none" xmlns="http://www.w3.org/2000/svg">
<path d="M12 0C13.1016 0 14.1641 0.140625 15.1875 0.421875C16.2109 0.703125 17.168 1.10547 18.0586 1.62891C18.9492 2.15234 19.7578 2.77734 20.4844 3.50391C21.2109 4.23047 21.8359 5.04297 22.3594 5.94141C22.8828 6.83984 23.2852 7.79688 23.5664 8.8125C23.8477 9.82812 23.9922 10.8906 24 12C24 13.1016 23.8594 14.1641 23.5781 15.1875C23.2969 16.2109 22.8945 17.168 22.3711 18.0586C21.8477 18.9492 21.2227 19.7578 20.4961 20.4844C19.7695 21.2109 18.957 21.8359 18.0586 22.3594C17.1602 22.8828 16.2031 23.2852 15.1875 23.5664C14.1719 23.8477 13.1094 23.9922 12 24C11.5859 24 11.1992 23.9219 10.8398 23.7656C10.4805 23.6094 10.1641 23.3945 9.89062 23.1211C9.61719 22.8477 9.40234 22.5312 9.24609 22.1719C9.08984 21.8125 9.00781 21.4219 9 21C9 20.6172 9.03516 20.2852 9.10547 20.0039C9.17578 19.7227 9.26953 19.4609 9.38672 19.2188C9.50391 18.9766 9.625 18.7578 9.75 18.5625C9.875 18.3672 9.99609 18.1641 10.1133 17.9531C10.2305 17.7422 10.3203 17.5234 10.3828 17.2969C10.4453 17.0703 10.4844 16.8047 10.5 16.5C10.5 16.0938 10.4219 15.707 10.2656 15.3398C10.1094 14.9727 9.89453 14.6562 9.62109 14.3906C9.34766 14.125 9.02734 13.9102 8.66016 13.7461C8.29297 13.582 7.90625 13.5 7.5 13.5C7.20312 13.5 6.94141 13.5352 6.71484 13.6055C6.48828 13.6758 6.26953 13.7695 6.05859 13.8867C5.84766 14.0039 5.64062 14.125 5.4375 14.25C5.23438 14.375 5.01562 14.4961 4.78125 14.6133C4.54688 14.7305 4.28516 14.8203 3.99609 14.8828C3.70703 14.9453 3.375 14.9844 3 15C2.58594 15 2.19922 14.9219 1.83984 14.7656C1.48047 14.6094 1.16406 14.3945 0.890625 14.1211C0.617188 13.8477 0.402344 13.5312 0.246094 13.1719C0.0898438 12.8125 0.0078125 12.4219 0 12C0 10.8984 0.140625 9.83594 0.421875 8.8125C0.703125 7.78906 1.10547 6.83203 1.62891 5.94141C2.15234 5.05078 2.77734 4.24219 3.50391 3.51562C4.23047 2.78906 5.04297 2.16406 5.94141 1.64062C6.83984 1.11719 7.79297 0.714844 8.80078 0.433594C9.80859 0.152344 10.875 0.0078125 12 0ZM12 22.5C12.9609 22.5 13.8867 22.375 14.7773 22.125C15.668 21.875 16.5039 21.5234 17.2852 21.0703C18.0664 20.6172 18.7773 20.0664 19.418 19.418C20.0586 18.7695 20.6055 18.0625 21.0586 17.2969C21.5117 16.5312 21.8672 15.6953 22.125 14.7891C22.3828 13.8828 22.5078 12.9531 22.5 12C22.5 11.0391 22.375 10.1133 22.125 9.22266C21.875 8.33203 21.5234 7.49609 21.0703 6.71484C20.6172 5.93359 20.0664 5.22266 19.418 4.58203C18.7695 3.94141 18.0625 3.39453 17.2969 2.94141C16.5312 2.48828 15.6953 2.13281 14.7891 1.875C13.8828 1.61719 12.9531 1.49219 12 1.5C11.0391 1.5 10.1133 1.625 9.22266 1.875C8.33203 2.125 7.49609 2.47656 6.71484 2.92969C5.93359 3.38281 5.22266 3.93359 4.58203 4.58203C3.94141 5.23047 3.39453 5.9375 2.94141 6.70312C2.48828 7.46875 2.13281 8.30469 1.875 9.21094C1.61719 10.1172 1.49219 11.0469 1.5 12C1.5 12.2109 1.53906 12.4062 1.61719 12.5859C1.69531 12.7656 1.80078 12.9219 1.93359 13.0547C2.06641 13.1875 2.22656 13.2969 2.41406 13.3828C2.60156 13.4688 2.79688 13.5078 3 13.5C3.29688 13.5 3.55859 13.4648 3.78516 13.3945C4.01172 13.3242 4.23047 13.2305 4.44141 13.1133C4.65234 12.9961 4.85547 12.875 5.05078 12.75C5.24609 12.625 5.46094 12.5039 5.69531 12.3867C5.92969 12.2695 6.19141 12.1797 6.48047 12.1172C6.76953 12.0547 7.10938 12.0156 7.5 12C8.125 12 8.71094 12.1172 9.25781 12.3516C9.80469 12.5859 10.2812 12.9062 10.6875 13.3125C11.0938 13.7188 11.4141 14.1953 11.6484 14.7422C11.8828 15.2891 12 15.875 12 16.5C12 16.8828 11.9648 17.2188 11.8945 17.5078C11.8242 17.7969 11.7305 18.0586 11.6133 18.293C11.4961 18.5273 11.375 18.7422 11.25 18.9375C11.125 19.1328 11.0039 19.3359 10.8867 19.5469C10.7695 19.7578 10.6797 19.9766 10.6172 20.2031C10.5547 20.4297 10.5156 20.6953 10.5 21C10.5 21.2109 10.5391 21.4062 10.6172 21.5859C10.6953 21.7656 10.8008 21.9219 10.9336 22.0547C11.0664 22.1875 11.2266 22.2969 11.4141 22.3828C11.6016 22.4688 11.7969 22.5078 12 22.5ZM6 7.5C6.21094 7.5 6.40625 7.53906 6.58594 7.61719C6.76562 7.69531 6.92188 7.80078 7.05469 7.93359C7.1875 8.06641 7.29688 8.22656 7.38281 8.41406C7.46875 8.60156 7.50781 8.79688 7.5 9C7.5 9.21094 7.46094 9.40625 7.38281 9.58594C7.30469 9.76562 7.19922 9.92188 7.06641 10.0547C6.93359 10.1875 6.77344 10.2969 6.58594 10.3828C6.39844 10.4688 6.20312 10.5078 6 10.5C5.78906 10.5 5.59375 10.4609 5.41406 10.3828C5.23438 10.3047 5.07812 10.1992 4.94531 10.0664C4.8125 9.93359 4.70312 9.77344 4.61719 9.58594C4.53125 9.39844 4.49219 9.20312 4.5 9C4.5 8.78906 4.53906 8.59375 4.61719 8.41406C4.69531 8.23438 4.80078 8.07812 4.93359 7.94531C5.06641 7.8125 5.22656 7.70312 5.41406 7.61719C5.60156 7.53125 5.79688 7.49219 6 7.5ZM10.5 4.5C10.7109 4.5 10.9062 4.53906 11.0859 4.61719C11.2656 4.69531 11.4219 4.80078 11.5547 4.93359C11.6875 5.06641 11.7969 5.22656 11.8828 5.41406C11.9688 5.60156 12.0078 5.79688 12 6C12 6.21094 11.9609 6.40625 11.8828 6.58594C11.8047 6.76562 11.6992 6.92188 11.5664 7.05469C11.4336 7.1875 11.2734 7.29688 11.0859 7.38281C10.8984 7.46875 10.7031 7.50781 10.5 7.5C10.2891 7.5 10.0938 7.46094 9.91406 7.38281C9.73438 7.30469 9.57812 7.19922 9.44531 7.06641C9.3125 6.93359 9.20312 6.77344 9.11719 6.58594C9.03125 6.39844 8.99219 6.20312 9 6C9 5.78906 9.03906 5.59375 9.11719 5.41406C9.19531 5.23438 9.30078 5.07812 9.43359 4.94531C9.56641 4.8125 9.72656 4.70312 9.91406 4.61719C10.1016 4.53125 10.2969 4.49219 10.5 4.5ZM16.5 9C16.2891 9 16.0938 8.96094 15.9141 8.88281C15.7344 8.80469 15.5781 8.69922 15.4453 8.56641C15.3125 8.43359 15.2031 8.27344 15.1172 8.08594C15.0312 7.89844 14.9922 7.70312 15 7.5C15 7.28906 15.0391 7.09375 15.1172 6.91406C15.1953 6.73438 15.3008 6.57812 15.4336 6.44531C15.5664 6.3125 15.7266 6.20312 15.9141 6.11719C16.1016 6.03125 16.2969 5.99219 16.5 6C16.7109 6 16.9062 6.03906 17.0859 6.11719C17.2656 6.19531 17.4219 6.30078 17.5547 6.43359C17.6875 6.56641 17.7969 6.72656 17.8828 6.91406C17.9688 7.10156 18.0078 7.29688 18 7.5C18 7.71094 17.9609 7.90625 17.8828 8.08594C17.8047 8.26562 17.6992 8.42188 17.5664 8.55469C17.4336 8.6875 17.2734 8.79688 17.0859 8.88281C16.8984 8.96875 16.7031 9.00781 16.5 9ZM18 12C18.2109 12 18.4062 12.0391 18.5859 12.1172C18.7656 12.1953 18.9219 12.3008 19.0547 12.4336C19.1875 12.5664 19.2969 12.7266 19.3828 12.9141C19.4688 13.1016 19.5078 13.2969 19.5 13.5C19.5 13.7109 19.4609 13.9062 19.3828 14.0859C19.3047 14.2656 19.1992 14.4219 19.0664 14.5547C18.9336 14.6875 18.7734 14.7969 18.5859 14.8828C18.3984 14.9688 18.2031 15.0078 18 15C17.7891 15 17.5938 14.9609 17.4141 14.8828C17.2344 14.8047 17.0781 14.6992 16.9453 14.5664C16.8125 14.4336 16.7031 14.2734 16.6172 14.0859C16.5312 13.8984 16.4922 13.7031 16.5 13.5C16.5 13.2891 16.5391 13.0938 16.6172 12.9141C16.6953 12.7344 16.8008 12.5781 16.9336 12.4453C17.0664 12.3125 17.2266 12.2031 17.4141 12.1172C17.6016 12.0312 17.7969 11.9922 18 12ZM15 16.5C15.2109 16.5 15.4062 16.5391 15.5859 16.6172C15.7656 16.6953 15.9219 16.8008 16.0547 16.9336C16.1875 17.0664 16.2969 17.2266 16.3828 17.4141C16.4688 17.6016 16.5078 17.7969 16.5 18C16.5 18.2109 16.4609 18.4062 16.3828 18.5859C16.3047 18.7656 16.1992 18.9219 16.0664 19.0547C15.9336 19.1875 15.7734 19.2969 15.5859 19.3828C15.3984 19.4688 15.2031 19.5078 15 19.5C14.7891 19.5 14.5938 19.4609 14.4141 19.3828C14.2344 19.3047 14.0781 19.1992 13.9453 19.0664C13.8125 18.9336 13.7031 18.7734 13.6172 18.5859C13.5312 18.3984 13.4922 18.2031 13.5 18C13.5 17.7891 13.5391 17.5938 13.6172 17.4141C13.6953 17.2344 13.8008 17.0781 13.9336 16.9453C14.0664 16.8125 14.2266 16.7031 14.4141 16.6172C14.6016 16.5312 14.7969 16.4922 15 16.5Z" fill="black"/>
</svg>
