<svg width="14" height="22" viewBox="0 0 14 22" fill="none" xmlns="http://www.w3.org/2000/svg">
<path d="M9.727 4C10.631 4 11.364 3.328 11.364 2.5C11.364 1.672 10.63 1 9.727 1H4.273C3.369 1 2.636 1.672 2.636 2.5C2.636 3.328 3.37 4 4.273 4M10.246 3.923C11.866 6.894 13 9.377 13 12.777V17C13 20.31 12.247 21 8.636 21H5.364C1.754 21 1 20.31 1 17V12.777C1 9.377 2.107 6.886 3.727 3.915" stroke="#FFD673" stroke-linecap="round" stroke-linejoin="round"/>
<path d="M1 11C1.571 11.5 3.092 11.476 3.984 11.279C4.606 11.142 5.277 11.303 5.698 11.764L6.523 12.666C6.7614 12.9234 7.05997 13.1177 7.39193 13.2313C7.72389 13.3449 8.07886 13.3744 8.425 13.317L9.468 13.15C10.042 13.058 10.613 13.29 11.004 13.706C12.223 15 13 15 13 15" stroke="#FFD673" stroke-linecap="round" stroke-linejoin="round"/>
</svg>
