<svg width="16" height="22" viewBox="0 0 16 22" fill="none" xmlns="http://www.w3.org/2000/svg">
<path d="M1 7H15" stroke="#FFD673" stroke-linecap="round"/>
<path d="M3.07653 8.0715C3.06671 7.9345 3.08522 7.79695 3.1309 7.66742C3.17658 7.53788 3.24846 7.41915 3.34205 7.31862C3.43563 7.21809 3.54893 7.13791 3.67487 7.0831C3.8008 7.02828 3.93668 6.99999 4.07403 7H11.926C12.0633 7 12.1992 7.02827 12.3251 7.08306C12.451 7.13784 12.5642 7.21797 12.6578 7.31845C12.7514 7.41893 12.8233 7.5376 12.869 7.66707C12.9147 7.79654 12.9333 7.93404 12.9235 8.071L12.0665 20.071C12.0486 20.3233 11.9357 20.5594 11.7506 20.7318C11.5655 20.9042 11.322 21 11.069 21H4.93103C4.6781 21 4.43457 20.9042 4.24948 20.7318C4.06439 20.5594 3.95149 20.3233 3.93353 20.071L3.07653 8.0715Z" stroke="#FFD673"/>
<path d="M8 4V2C8 1.73478 8.10536 1.48043 8.29289 1.29289C8.48043 1.10536 8.73478 1 9 1H10.5" stroke="#FFD673" stroke-linecap="round"/>
<path d="M3.361 4.8355C3.39993 4.60209 3.52036 4.39005 3.7009 4.23707C3.88143 4.08409 4.11037 4.00009 4.347 4H11.653C11.8897 3.99997 12.1188 4.08392 12.2994 4.23691C12.4801 4.3899 12.6006 4.60201 12.6395 4.8355L13 7H3L3.361 4.8355Z" fill="#FFD673" stroke="#FFD673"/>
</svg>
