<svg width="13" height="11" viewBox="0 0 13 11" fill="none" xmlns="http://www.w3.org/2000/svg">
<path d="M1.26967 10.4584C0.943361 10.4584 0.671125 10.3493 0.452958 10.1312C0.234792 9.913 0.125472 9.64053 0.125 9.31375V1.68641C0.125 1.36011 0.234319 1.08787 0.452958 0.869706C0.671597 0.65154 0.943597 0.54222 1.26896 0.541748H11.731C12.0569 0.541748 12.3289 0.651067 12.547 0.869706C12.7652 1.08835 12.8745 1.36058 12.875 1.68641V9.31446C12.875 9.64029 12.7657 9.91253 12.547 10.1312C12.3284 10.3498 12.0564 10.4589 11.731 10.4584H1.26967ZM6.5 5.58225L0.833333 1.87696V9.31446C0.833333 9.44148 0.87418 9.54585 0.955875 9.62754C1.03757 9.70923 1.14217 9.75008 1.26967 9.75008H11.731C11.8581 9.75008 11.9624 9.70923 12.0441 9.62754C12.1258 9.54585 12.1667 9.44125 12.1667 9.31375V1.87625L6.5 5.58225ZM6.5 4.79175L11.9485 1.25008H1.0515L6.5 4.79175ZM0.833333 1.87696V1.25008V9.31446C0.833333 9.44148 0.87418 9.54585 0.955875 9.62754C1.03757 9.70923 1.14217 9.75008 1.26967 9.75008H0.833333V1.87696Z" fill="black"/>
</svg>
