<svg width="32" height="24" viewBox="0 0 32 24" fill="none" xmlns="http://www.w3.org/2000/svg">
<path d="M2.45199 6.57999L3.51299 5.51999L9.29199 11.297C9.38514 11.3896 9.45907 11.4996 9.50952 11.6209C9.55997 11.7421 9.58594 11.8722 9.58594 12.0035C9.58594 12.1348 9.55997 12.2648 9.50952 12.3861C9.45907 12.5073 9.38514 12.6174 9.29199 12.71L3.51299 18.49L2.45299 17.43L7.87699 12.005L2.45199 6.57999Z" fill="black"/>
<path d="M12.452 6.57999L13.513 5.51999L19.292 11.297C19.3851 11.3896 19.4591 11.4996 19.5095 11.6209C19.56 11.7421 19.5859 11.8722 19.5859 12.0035C19.5859 12.1348 19.56 12.2648 19.5095 12.3861C19.4591 12.5073 19.3851 12.6174 19.292 12.71L13.513 18.49L12.453 17.43L17.877 12.005L12.452 6.57999Z" fill="black"/>
<path d="M22.452 6.57999L23.513 5.51999L29.292 11.297C29.3851 11.3896 29.4591 11.4996 29.5095 11.6209C29.56 11.7421 29.5859 11.8722 29.5859 12.0035C29.5859 12.1348 29.56 12.2648 29.5095 12.3861C29.4591 12.5073 29.3851 12.6174 29.292 12.71L23.513 18.49L22.453 17.43L27.877 12.005L22.452 6.57999Z" fill="black"/>
</svg>
