<svg width="19" height="19" viewBox="0 0 19 19" fill="none" xmlns="http://www.w3.org/2000/svg">
<path fill-rule="evenodd" clip-rule="evenodd" d="M6.43994 0.782959C6.57255 0.782959 6.69973 0.835638 6.7935 0.929406C6.88726 1.02317 6.93994 1.15035 6.93994 1.28296V4.58296C6.93994 4.71557 6.88726 4.84274 6.7935 4.93651C6.69973 5.03028 6.57255 5.08296 6.43994 5.08296C6.30733 5.08296 6.18016 5.03028 6.08639 4.93651C5.99262 4.84274 5.93994 4.71557 5.93994 4.58296V1.28296C5.93994 1.15035 5.99262 1.02317 6.08639 0.929406C6.18016 0.835638 6.30733 0.782959 6.43994 0.782959Z" fill="#FFD673"/>
<path fill-rule="evenodd" clip-rule="evenodd" d="M2.88995 3.95257C3.45495 3.81757 4.03146 3.92007 4.62995 4.22907C5.11746 4.48157 5.46345 4.59707 5.73295 4.65257C6.00195 4.70857 6.21595 4.70957 6.47445 4.70957V5.70957H6.46446C6.20646 5.70957 5.90446 5.70957 5.53046 5.63207C5.15196 5.55357 4.71945 5.40107 4.17045 5.11707C3.73145 4.89057 3.40045 4.85857 3.12245 4.92507C2.83045 4.99507 2.52195 5.19007 2.16645 5.55707C1.35045 6.40107 1.09695 7.27007 1.00845 7.93807C0.958455 8.76007 1.10695 10.3831 1.84245 11.9696C2.09245 12.5096 2.44745 13.2546 2.88045 13.8381C3.09645 14.1291 3.31345 14.3531 3.52195 14.4911C3.72445 14.6246 3.89245 14.6611 4.04495 14.6351C5.60645 14.3661 5.89995 14.3596 6.20445 14.3596H6.72295V15.3596H6.18995C5.97895 15.3596 5.72995 15.3596 4.21495 15.6206C3.74495 15.7016 3.32146 15.5571 2.97095 15.3256C2.62645 15.0981 2.32895 14.7726 2.07745 14.4341C1.57495 13.7576 1.18195 12.9221 0.935455 12.3901C0.116455 10.6241 -0.0505455 8.82157 0.0114545 7.85807L0.0129547 7.84207L0.0149547 7.82607C0.120955 7.00407 0.436955 5.90657 1.44795 4.86207C1.87045 4.42507 2.33945 4.08407 2.89045 3.95207" fill="#FFD673"/>
<path fill-rule="evenodd" clip-rule="evenodd" d="M4.32 2.705C5.068 3.4205 5.4735 4.288 5.4735 4.96C5.4735 5.09261 5.52618 5.21979 5.61994 5.31355C5.71371 5.40732 5.84089 5.46 5.9735 5.46C6.10611 5.46 6.23328 5.40732 6.32705 5.31355C6.42082 5.21979 6.4735 5.09261 6.4735 4.96C6.4735 3.935 5.8895 2.8225 5.011 1.982C4.122 1.1325 2.8715 0.5 1.448 0.5C1.31539 0.5 1.18821 0.552679 1.09444 0.646447C1.00068 0.740215 0.947998 0.867392 0.947998 1C0.947998 1.13261 1.00068 1.25979 1.09444 1.35355C1.18821 1.44732 1.31539 1.5 1.448 1.5C2.57 1.5 3.582 1.9995 4.3195 2.705" fill="#FFD673"/>
<path fill-rule="evenodd" clip-rule="evenodd" d="M1.28697 0.504578C1.41851 0.488173 1.55118 0.524674 1.65582 0.606058C1.76045 0.687442 1.82849 0.807047 1.84497 0.938578C2.09097 2.90358 3.81747 3.93858 5.21197 4.49608C5.33509 4.54534 5.43361 4.6415 5.48584 4.7634C5.53806 4.8853 5.53973 5.02295 5.49047 5.14608C5.4412 5.26921 5.34504 5.36772 5.22315 5.41995C5.10125 5.47218 4.96359 5.47384 4.84047 5.42458C3.40597 4.85108 1.17297 3.62258 0.852967 1.06258C0.836562 0.931037 0.873063 0.798366 0.954447 0.693729C1.03583 0.589093 1.15544 0.521057 1.28697 0.504578ZM9.88097 3.95158C9.30497 3.81958 8.71397 3.91858 8.09597 4.22558C7.58597 4.47858 7.22247 4.59558 6.93747 4.65208C6.65247 4.70858 6.42647 4.70958 6.15747 4.70958C6.02486 4.70958 5.89768 4.76226 5.80391 4.85602C5.71014 4.94979 5.65747 5.07697 5.65747 5.20958C5.65747 5.34219 5.71014 5.46936 5.80391 5.56313C5.89768 5.6569 6.02486 5.70958 6.15747 5.70958H6.16697C6.43547 5.70958 6.74697 5.70958 7.13197 5.63308C7.52247 5.55558 7.96997 5.40408 8.53997 5.12108C9.00197 4.89208 9.35597 4.85708 9.65797 4.92608C9.97097 4.99808 10.2965 5.19708 10.6665 5.56458C11.5245 6.41608 11.784 7.29058 11.8735 7.95658C11.8929 8.08643 11.9626 8.20342 12.0676 8.28229C12.1726 8.36116 12.3043 8.39558 12.4345 8.37812C12.5646 8.36066 12.6826 8.29271 12.7631 8.18895C12.8435 8.0852 12.88 7.95396 12.8645 7.82358C12.7535 6.99708 12.4225 5.89858 11.371 4.85458C10.9305 4.41758 10.446 4.08058 9.88097 3.95158ZM10.3535 14.1401C10.3062 14.0945 10.2503 14.0588 10.1892 14.0348C10.1281 14.0108 10.0628 13.9991 9.99717 14.0004C9.93152 14.0016 9.86676 14.0158 9.80658 14.0421C9.74641 14.0684 9.692 14.1063 9.64647 14.1536C9.26797 14.5466 8.94997 14.6786 8.68097 14.6346C7.05497 14.3656 6.75097 14.3596 6.43847 14.3596C6.30586 14.3596 6.17868 14.4123 6.08491 14.506C5.99115 14.5998 5.93847 14.727 5.93847 14.8596C5.93847 14.9922 5.99115 15.1194 6.08491 15.2131C6.17868 15.3069 6.30586 15.3596 6.43847 15.3596H6.45247C6.67597 15.3596 6.93597 15.3596 8.51747 15.6211C9.27847 15.7471 9.90997 15.3211 10.367 14.8471C10.4126 14.7998 10.4484 14.7439 10.4724 14.6827C10.4964 14.6216 10.5082 14.5562 10.5069 14.4905C10.5056 14.4248 10.4914 14.36 10.4651 14.2998C10.4388 14.2396 10.4009 14.1856 10.3535 14.1401Z" fill="#FFD673"/>
<path fill-rule="evenodd" clip-rule="evenodd" d="M13.325 5.05162C12.8235 5.95662 12.6935 6.90612 12.893 7.54762C12.9125 7.61032 12.9195 7.67625 12.9135 7.74165C12.9075 7.80705 12.8887 7.87062 12.8582 7.92875C12.8276 7.98688 12.7859 8.03843 12.7354 8.08044C12.685 8.12245 12.6267 8.15411 12.564 8.17362C12.5013 8.19312 12.4354 8.20008 12.37 8.1941C12.3046 8.18812 12.241 8.16931 12.1829 8.13876C12.1247 8.10821 12.0732 8.06651 12.0312 8.01604C11.9892 7.96557 11.9575 7.90732 11.938 7.84461C11.6335 6.86512 11.8615 5.62962 12.4505 4.56662C13.047 3.49062 14.0535 2.51612 15.413 2.09312C15.4757 2.07361 15.5416 2.06665 15.607 2.07263C15.6724 2.07861 15.736 2.09742 15.7941 2.12797C15.8523 2.15852 15.9038 2.20022 15.9458 2.25069C15.9878 2.30116 16.0195 2.35941 16.039 2.42212C16.0585 2.48482 16.0655 2.55075 16.0595 2.61615C16.0535 2.68155 16.0347 2.74512 16.0042 2.80325C15.9736 2.86138 15.9319 2.91293 15.8814 2.95494C15.831 2.99695 15.7727 3.02861 15.71 3.04812C14.6385 3.38112 13.82 4.15912 13.325 5.05162Z" fill="#FFD673"/>
<path fill-rule="evenodd" clip-rule="evenodd" d="M14.3595 5.68958C13.7755 6.54458 12.9855 7.08608 12.323 7.19608C12.2574 7.20586 12.1944 7.22859 12.1377 7.26295C12.081 7.29731 12.0316 7.34262 11.9926 7.39623C11.9535 7.44984 11.9255 7.51068 11.9102 7.57522C11.8949 7.63975 11.8926 7.70669 11.9034 7.77212C11.9142 7.83756 11.938 7.90019 11.9732 7.95637C12.0085 8.01255 12.0545 8.06116 12.1088 8.09936C12.163 8.13756 12.2243 8.16459 12.289 8.17887C12.3538 8.19316 12.4208 8.19442 12.486 8.18258C13.4975 8.01508 14.4995 7.25708 15.185 6.25358C15.879 5.23758 16.2985 3.90058 16.066 2.49608C16.0553 2.43127 16.0319 2.36921 15.9973 2.31343C15.9626 2.25765 15.9172 2.20925 15.8638 2.17099C15.8104 2.13273 15.75 2.10537 15.6861 2.09045C15.6221 2.07554 15.5558 2.07337 15.491 2.08408C15.4262 2.09478 15.3641 2.11814 15.3084 2.15283C15.2526 2.18752 15.2042 2.23286 15.1659 2.28625C15.1277 2.33964 15.1003 2.40005 15.0854 2.46402C15.0705 2.52799 15.0683 2.59427 15.079 2.65908C15.2625 3.76608 14.935 4.84658 14.359 5.68908" fill="#FFD673"/>
<path fill-rule="evenodd" clip-rule="evenodd" d="M12.89 8.5C12.5585 8.5 12.2406 8.6317 12.0061 8.86612C11.7717 9.10054 11.64 9.41848 11.64 9.75C11.64 10.0815 11.7717 10.3995 12.0061 10.6339C12.2406 10.8683 12.5585 11 12.89 11C13.2215 11 13.5395 10.8683 13.7739 10.6339C14.0083 10.3995 14.14 10.0815 14.14 9.75C14.14 9.41848 14.0083 9.10054 13.7739 8.86612C13.5395 8.6317 13.2215 8.5 12.89 8.5ZM10.64 9.75C10.64 9.45453 10.6982 9.16194 10.8113 8.88896C10.9244 8.61598 11.0901 8.36794 11.299 8.15901C11.508 7.95008 11.756 7.78434 12.029 7.67127C12.302 7.5582 12.5945 7.5 12.89 7.5C13.1855 7.5 13.4781 7.5582 13.7511 7.67127C14.024 7.78434 14.2721 7.95008 14.481 8.15901C14.6899 8.36794 14.8557 8.61598 14.9687 8.88896C15.0818 9.16194 15.14 9.45453 15.14 9.75C15.14 10.3467 14.903 10.919 14.481 11.341C14.059 11.7629 13.4868 12 12.89 12C12.2933 12 11.721 11.7629 11.299 11.341C10.8771 10.919 10.64 10.3467 10.64 9.75Z" fill="#FFD673"/>
<path fill-rule="evenodd" clip-rule="evenodd" d="M15.9224 6.04503C16.4841 6.24655 16.9427 6.66292 17.1973 7.20255C17.452 7.74218 17.4819 8.36087 17.2804 8.92253C17.2582 8.98435 17.2241 9.0412 17.18 9.08983C17.1359 9.13847 17.0826 9.17793 17.0232 9.20598C16.9638 9.23402 16.8995 9.25009 16.8339 9.25328C16.7683 9.25646 16.7027 9.24669 16.6409 9.22453C16.5791 9.20237 16.5222 9.16825 16.4736 9.12412C16.425 9.07999 16.3855 9.02671 16.3575 8.96733C16.3294 8.90795 16.3133 8.84362 16.3102 8.77802C16.307 8.71243 16.3167 8.64685 16.3389 8.58503C16.451 8.273 16.4345 7.92924 16.2931 7.62937C16.1517 7.3295 15.8969 7.09809 15.5849 6.98603C15.2729 6.87398 14.9291 6.89047 14.6292 7.03187C14.3294 7.17327 14.098 7.428 13.9859 7.74003C13.965 7.80336 13.9315 7.86185 13.8876 7.91206C13.8437 7.96227 13.7902 8.00319 13.7302 8.03241C13.6703 8.06163 13.6051 8.07855 13.5385 8.08219C13.4719 8.08582 13.4052 8.07609 13.3424 8.05358C13.2796 8.03106 13.222 7.9962 13.1729 7.95107C13.1238 7.90593 13.0842 7.85142 13.0565 7.79075C13.0287 7.73009 13.0134 7.66448 13.0115 7.59781C13.0095 7.53114 13.0208 7.46474 13.0449 7.40253C13.2465 6.84098 13.6629 6.3825 14.2026 6.12792C14.7422 5.87335 15.3608 5.84353 15.9224 6.04503Z" fill="#FFD673"/>
<path fill-rule="evenodd" clip-rule="evenodd" d="M15.1265 8.58796C15.6384 8.44114 16.1858 8.48059 16.6713 8.6993C17.1568 8.91801 17.5491 9.30181 17.7783 9.78247C18.0076 10.2631 18.0589 10.8095 17.9233 11.3245C17.7876 11.8394 17.4738 12.2896 17.0375 12.595C16.9287 12.6676 16.7957 12.6947 16.6672 12.6705C16.5386 12.6462 16.4247 12.5725 16.3498 12.4652C16.2749 12.3579 16.2451 12.2255 16.2668 12.0965C16.2884 11.9674 16.3598 11.852 16.4655 11.775C16.6031 11.6787 16.7199 11.5558 16.8089 11.4134C16.898 11.2711 16.9574 11.1122 16.9837 10.9464C17.01 10.7805 17.0026 10.6111 16.962 10.4482C16.9214 10.2853 16.8483 10.1322 16.7473 9.99813C16.6462 9.86406 16.5191 9.75172 16.3737 9.66782C16.2282 9.58393 16.0674 9.5302 15.9007 9.50984C15.7341 9.48947 15.565 9.5029 15.4036 9.54931C15.2423 9.59572 15.0919 9.67416 14.9615 9.77996C14.9106 9.82139 14.8519 9.85238 14.789 9.87116C14.7261 9.88994 14.6601 9.89614 14.5947 9.88941C14.5294 9.88268 14.4661 9.86315 14.4083 9.83193C14.3505 9.80071 14.2994 9.75842 14.258 9.70746C14.2166 9.65651 14.1856 9.59789 14.1668 9.53497C14.148 9.47204 14.1418 9.40602 14.1486 9.3407C14.1553 9.27537 14.1748 9.21201 14.206 9.15423C14.2373 9.09646 14.2796 9.04539 14.3305 9.00396C14.5652 8.81321 14.8359 8.67172 15.1265 8.58796ZM10.89 11.5C10.5585 11.5 10.2406 11.6317 10.0061 11.8661C9.77171 12.1005 9.64001 12.4184 9.64001 12.75C9.64001 13.0815 9.77171 13.3994 10.0061 13.6338C10.2406 13.8683 10.5585 14 10.89 14C11.2215 14 11.5395 13.8683 11.7739 13.6338C12.0083 13.3994 12.14 13.0815 12.14 12.75C12.14 12.4184 12.0083 12.1005 11.7739 11.8661C11.5395 11.6317 11.2215 11.5 10.89 11.5ZM8.64001 12.75C8.64001 12.1532 8.87707 11.5809 9.29902 11.159C9.72098 10.737 10.2933 10.5 10.89 10.5C11.4868 10.5 12.059 10.737 12.481 11.159C12.903 11.5809 13.14 12.1532 13.14 12.75C13.14 13.3467 12.903 13.919 12.481 14.341C12.059 14.7629 11.4868 15 10.89 15C10.2933 15 9.72098 14.7629 9.29902 14.341C8.87707 13.919 8.64001 13.3467 8.64001 12.75Z" fill="#FFD673"/>
<path fill-rule="evenodd" clip-rule="evenodd" d="M14.89 11.5C14.5585 11.5 14.2406 11.6317 14.0061 11.8661C13.7717 12.1005 13.64 12.4185 13.64 12.75C13.64 13.0815 13.7717 13.3995 14.0061 13.6339C14.2406 13.8683 14.5585 14 14.89 14C15.2215 14 15.5395 13.8683 15.7739 13.6339C16.0083 13.3995 16.14 13.0815 16.14 12.75C16.14 12.4185 16.0083 12.1005 15.7739 11.8661C15.5395 11.6317 15.2215 11.5 14.89 11.5ZM12.64 12.75C12.64 12.1533 12.8771 11.581 13.299 11.159C13.721 10.7371 14.2933 10.5 14.89 10.5C15.4868 10.5 16.059 10.7371 16.481 11.159C16.903 11.581 17.14 12.1533 17.14 12.75C17.14 13.3467 16.903 13.919 16.481 14.341C16.059 14.7629 15.4868 15 14.89 15C14.2933 15 13.721 14.7629 13.299 14.341C12.8771 13.919 12.64 13.3467 12.64 12.75Z" fill="#FFD673"/>
<path fill-rule="evenodd" clip-rule="evenodd" d="M12.89 14.5C12.5585 14.5 12.2406 14.6317 12.0061 14.8661C11.7717 15.1005 11.64 15.4185 11.64 15.75C11.64 16.0815 11.7717 16.3995 12.0061 16.6339C12.2406 16.8683 12.5585 17 12.89 17C13.2215 17 13.5395 16.8683 13.7739 16.6339C14.0083 16.3995 14.14 16.0815 14.14 15.75C14.14 15.4185 14.0083 15.1005 13.7739 14.8661C13.5395 14.6317 13.2215 14.5 12.89 14.5ZM10.64 15.75C10.64 15.4545 10.6982 15.1619 10.8113 14.889C10.9244 14.616 11.0901 14.3679 11.299 14.159C11.508 13.9501 11.756 13.7843 12.029 13.6713C12.302 13.5582 12.5945 13.5 12.89 13.5C13.1855 13.5 13.4781 13.5582 13.7511 13.6713C14.024 13.7843 14.2721 13.9501 14.481 14.159C14.6899 14.3679 14.8557 14.616 14.9687 14.889C15.0818 15.1619 15.14 15.4545 15.14 15.75C15.14 16.3467 14.903 16.919 14.481 17.341C14.059 17.7629 13.4868 18 12.89 18C12.2933 18 11.721 17.7629 11.299 17.341C10.8771 16.919 10.64 16.3467 10.64 15.75Z" fill="#FFD673"/>
<path fill-rule="evenodd" clip-rule="evenodd" d="M15.917 13.983C15.939 13.9211 15.973 13.8642 16.0171 13.8155C16.0611 13.7668 16.1144 13.7272 16.1737 13.6991C16.233 13.671 16.2973 13.6548 16.3629 13.6515C16.4285 13.6482 16.4941 13.6579 16.556 13.68C16.8732 13.7932 17.1609 13.9763 17.3979 14.2156C17.6349 14.4548 17.8152 14.7443 17.9255 15.0626C18.0357 15.3808 18.073 15.7198 18.0348 16.0544C17.9966 16.3891 17.8837 16.7108 17.7045 16.996C17.5253 17.2812 17.2843 17.5225 16.9994 17.7022C16.7145 17.8818 16.3929 17.9952 16.0583 18.034C15.7238 18.0727 15.3847 18.0359 15.0663 17.9262C14.7479 17.8164 14.4581 17.6366 14.2185 17.4C14.1705 17.3541 14.1322 17.2992 14.1056 17.2384C14.0791 17.1776 14.065 17.1121 14.064 17.0458C14.0631 16.9794 14.0753 16.9136 14.1001 16.852C14.1248 16.7905 14.1616 16.7344 14.2082 16.6872C14.2548 16.64 14.3103 16.6026 14.3716 16.577C14.4328 16.5515 14.4985 16.5384 14.5648 16.5385C14.6312 16.5386 14.6968 16.552 14.758 16.5777C14.8191 16.6034 14.8745 16.6411 14.921 16.6885C15.0541 16.8199 15.215 16.9198 15.3919 16.9808C15.5688 17.0418 15.7572 17.0623 15.943 17.0408C16.1289 17.0192 16.3076 16.9563 16.4658 16.8565C16.6241 16.7567 16.758 16.6227 16.8576 16.4643C16.9571 16.3059 17.0199 16.1271 17.0412 15.9412C17.0625 15.7553 17.0417 15.567 16.9805 15.3902C16.9193 15.2134 16.8192 15.0526 16.6876 14.9196C16.556 14.7867 16.3962 14.6849 16.22 14.622C16.1581 14.5999 16.1011 14.5659 16.0523 14.5218C16.0036 14.4777 15.964 14.4244 15.9359 14.365C15.9077 14.3056 15.8916 14.2413 15.8883 14.1756C15.8851 14.11 15.8948 14.0448 15.917 13.983Z" fill="#FFD673"/>
</svg>
