<svg width="28" height="27" viewBox="0 0 28 27" fill="none" xmlns="http://www.w3.org/2000/svg">
<path d="M2 12.0044C2 10.3722 2.79667 8.84276 4.13415 7.90723L11.1432 3.00458C12.8642 1.80082 15.154 1.80082 16.875 3.00458L23.8841 7.90723C25.2215 8.84276 26.0182 10.3722 26.0182 12.0044V22.6C26.0182 23.2365 25.737 23.847 25.2366 24.2971C24.7361 24.7471 24.0573 25 23.3495 25H4.66869C3.96091 25 3.28212 24.7471 2.78164 24.2971C2.28116 23.847 2 23.2365 2 22.6V12.0044Z" stroke="black" stroke-width="3" stroke-linecap="round" stroke-linejoin="round"/>
<path d="M10.0061 25V17.003C10.0061 14.7922 11.7983 13 14.0091 13V13C16.22 13 18.0122 14.7922 18.0122 17.003V25" stroke="black" stroke-width="3" stroke-linecap="round" stroke-linejoin="round"/>
</svg>
