<svg width="20" height="21" viewBox="0 0 20 21" fill="none" xmlns="http://www.w3.org/2000/svg">
<path d="M11.62 6.38192L13.586 4.41492C13.3534 4.18239 13.1818 3.89609 13.0862 3.58138C12.9907 3.26667 12.9743 2.93325 13.0384 2.61067C13.1025 2.28809 13.2451 1.98629 13.4537 1.73201C13.6623 1.47774 13.9304 1.27882 14.2342 1.1529C14.5381 1.02697 14.8683 0.977913 15.1956 1.01007C15.5229 1.04223 15.8372 1.15462 16.1107 1.33727C16.3842 1.51992 16.6085 1.76721 16.7636 2.05722C16.9187 2.34723 16.9999 2.67103 17 2.99992C17.329 2.99968 17.6529 3.0806 17.9432 3.2355C18.2334 3.3904 18.4809 3.61451 18.6638 3.88795C18.8467 4.16139 18.9594 4.47573 18.9917 4.80311C19.0241 5.13048 18.9752 5.46079 18.8494 5.76476C18.7236 6.06873 18.5248 6.33697 18.2705 6.54572C18.0162 6.75446 17.7144 6.89726 17.3917 6.96146C17.0691 7.02566 16.7356 7.00928 16.4208 6.91377C16.106 6.81826 15.8196 6.64657 15.587 6.41392L13.767 8.23492M5.50001 13.9999L6.50001 14.9999M3.90401 16.5959C6.63701 19.3299 9.80401 20.5959 10.974 19.4249C12.146 18.2529 10.88 15.0869 8.14601 12.3539C5.41301 9.61992 2.24601 8.35392 1.07601 9.52492C-0.0959893 10.6969 1.17001 13.8629 3.90401 16.5959Z" stroke="#FFD673" stroke-linecap="round" stroke-linejoin="round"/>
<path d="M10.975 19.425C14.88 15.519 15.83 10.137 13.096 7.40397C10.363 4.66997 4.98105 5.61997 1.07605 9.52497" stroke="#FFD673" stroke-linecap="round" stroke-linejoin="round"/>
</svg>
