<svg width="20" height="22" viewBox="0 0 20 22" fill="none" xmlns="http://www.w3.org/2000/svg">
<mask id="path-1-inside-1_135_1387" fill="white">
<path d="M18.79 5.53062L10.54 1.01374C10.3744 0.923153 10.1887 0.875671 10 0.875671C9.81127 0.875671 9.62557 0.923153 9.46 1.01374L1.21 5.53062C1.03302 5.62746 0.885332 5.7701 0.782411 5.94362C0.67949 6.11713 0.625121 6.31513 0.625 6.51687V15.4831C0.625121 15.6849 0.67949 15.8829 0.782411 16.0564C0.885332 16.2299 1.03302 16.3725 1.21 16.4694L9.46 20.9862C9.62543 21.0773 9.81118 21.125 10 21.125C10.1888 21.125 10.3746 21.0773 10.54 20.9862L18.79 16.4694C18.967 16.3725 19.1147 16.2299 19.2176 16.0564C19.3205 15.8829 19.3749 15.6849 19.375 15.4831V6.51687C19.3749 6.31513 19.3205 6.11713 19.2176 5.94362C19.1147 5.7701 18.967 5.62746 18.79 5.53062ZM9.82 1.67187C9.87502 1.64116 9.93699 1.62504 10 1.62504C10.063 1.62504 10.125 1.64116 10.18 1.67187L18.3128 6.12499L14.7344 8.08343C14.7174 8.06936 14.6992 8.05681 14.68 8.04593L6.43 3.52906L9.82 1.67187ZM10 10.6719L1.68719 6.12499L5.64625 3.95656L13.9591 8.50718L10 10.6719ZM1.57 15.8094C1.5111 15.7771 1.46193 15.7297 1.42763 15.672C1.39333 15.6143 1.37515 15.5484 1.375 15.4812V6.80843L9.625 11.3234V20.2212L1.57 15.8094ZM18.43 15.8094L10.375 20.2156V11.3234L14.125 9.27125V13.25C14.125 13.3495 14.1645 13.4448 14.2348 13.5152C14.3052 13.5855 14.4005 13.625 14.5 13.625C14.5995 13.625 14.6948 13.5855 14.7652 13.5152C14.8355 13.4448 14.875 13.3495 14.875 13.25V8.86062L18.625 6.80843V15.4831C18.6248 15.5503 18.6067 15.6161 18.5724 15.6738C18.5381 15.7316 18.4889 15.779 18.43 15.8112V15.8094Z"/>
</mask>
<path d="M18.79 5.53062L10.54 1.01374C10.3744 0.923153 10.1887 0.875671 10 0.875671C9.81127 0.875671 9.62557 0.923153 9.46 1.01374L1.21 5.53062C1.03302 5.62746 0.885332 5.7701 0.782411 5.94362C0.67949 6.11713 0.625121 6.31513 0.625 6.51687V15.4831C0.625121 15.6849 0.67949 15.8829 0.782411 16.0564C0.885332 16.2299 1.03302 16.3725 1.21 16.4694L9.46 20.9862C9.62543 21.0773 9.81118 21.125 10 21.125C10.1888 21.125 10.3746 21.0773 10.54 20.9862L18.79 16.4694C18.967 16.3725 19.1147 16.2299 19.2176 16.0564C19.3205 15.8829 19.3749 15.6849 19.375 15.4831V6.51687C19.3749 6.31513 19.3205 6.11713 19.2176 5.94362C19.1147 5.7701 18.967 5.62746 18.79 5.53062ZM9.82 1.67187C9.87502 1.64116 9.93699 1.62504 10 1.62504C10.063 1.62504 10.125 1.64116 10.18 1.67187L18.3128 6.12499L14.7344 8.08343C14.7174 8.06936 14.6992 8.05681 14.68 8.04593L6.43 3.52906L9.82 1.67187ZM10 10.6719L1.68719 6.12499L5.64625 3.95656L13.9591 8.50718L10 10.6719ZM1.57 15.8094C1.5111 15.7771 1.46193 15.7297 1.42763 15.672C1.39333 15.6143 1.37515 15.5484 1.375 15.4812V6.80843L9.625 11.3234V20.2212L1.57 15.8094ZM18.43 15.8094L10.375 20.2156V11.3234L14.125 9.27125V13.25C14.125 13.3495 14.1645 13.4448 14.2348 13.5152C14.3052 13.5855 14.4005 13.625 14.5 13.625C14.5995 13.625 14.6948 13.5855 14.7652 13.5152C14.8355 13.4448 14.875 13.3495 14.875 13.25V8.86062L18.625 6.80843V15.4831C18.6248 15.5503 18.6067 15.6161 18.5724 15.6738C18.5381 15.7316 18.4889 15.779 18.43 15.8112V15.8094Z" fill="#FFD673"/>
<path d="M18.79 5.53062L18.3098 6.40776L18.31 6.40789L18.79 5.53062ZM10.54 1.01374L11.0202 0.136604L11.02 0.136476L10.54 1.01374ZM10 0.875671V-0.124329V0.875671ZM9.46 1.01374L8.98 0.136476L8.97977 0.136604L9.46 1.01374ZM1.21 5.53062L1.69 6.40789L1.69023 6.40776L1.21 5.53062ZM0.625 6.51687L-0.375 6.51627V6.51687H0.625ZM0.625 15.4831H-0.375L-0.375 15.4837L0.625 15.4831ZM1.21 16.4694L1.69023 15.5922L1.69 15.5921L1.21 16.4694ZM9.46 20.9862L9.94201 20.1101L9.94023 20.1091L9.46 20.9862ZM10.54 20.9862L10.0598 20.1091L10.058 20.1101L10.54 20.9862ZM18.79 16.4694L18.31 15.5921L18.3098 15.5922L18.79 16.4694ZM19.375 15.4831L20.375 15.4837V15.4831H19.375ZM19.375 6.51687H20.375V6.51627L19.375 6.51687ZM9.82 1.67187L10.3005 2.54891L10.3073 2.5451L9.82 1.67187ZM10 1.62504V0.625043V1.62504ZM10.18 1.67187L9.69267 2.54513L9.69973 2.54899L10.18 1.67187ZM18.3128 6.12499L18.7929 7.00221L20.3954 6.1252L18.7931 5.24787L18.3128 6.12499ZM14.7344 8.08343L14.0963 8.85345L14.619 9.28653L15.2145 8.96065L14.7344 8.08343ZM14.68 8.04593L15.173 7.17592L15.1667 7.17231L15.1602 7.16879L14.68 8.04593ZM6.43 3.52906L5.94953 2.65204L4.34818 3.52933L5.94977 4.4062L6.43 3.52906ZM10 10.6719L9.52012 11.5492L9.99991 11.8116L10.4797 11.5493L10 10.6719ZM1.68719 6.12499L1.20681 5.24793L-0.395587 6.12559L1.20731 7.00233L1.68719 6.12499ZM5.64625 3.95656L6.12643 3.07939L5.64612 2.81646L5.16587 3.0795L5.64625 3.95656ZM13.9591 8.50718L14.4388 9.38459L16.0426 8.50771L14.4392 7.63001L13.9591 8.50718ZM1.57 15.8094L2.05038 14.9323L2.05 14.9321L1.57 15.8094ZM1.375 15.4812H0.374997L0.375003 15.4835L1.375 15.4812ZM1.375 6.80843L1.85508 5.93121L0.375 5.1212V6.80843H1.375ZM9.625 11.3234H10.625V10.7307L10.1051 10.4462L9.625 11.3234ZM9.625 20.2212L9.14462 21.0983L10.625 21.9091V20.2212H9.625ZM18.43 15.8094H19.43V14.1225L17.9501 14.9321L18.43 15.8094ZM10.375 20.2156H9.375V21.9025L10.8549 21.0929L10.375 20.2156ZM10.375 11.3234L9.89493 10.4462L9.375 10.7307V11.3234H10.375ZM14.125 9.27125H15.125V7.58405L13.6449 8.39401L14.125 9.27125ZM14.875 8.86062L14.3949 7.98339L13.875 8.26792V8.86062H14.875ZM18.625 6.80843H19.625V5.12123L18.1449 5.9312L18.625 6.80843ZM18.625 15.4831L19.625 15.4854V15.4831H18.625ZM18.43 15.8112H17.43V17.4983L18.91 16.6885L18.43 15.8112ZM18.79 5.53062L19.2702 4.65348L11.0202 0.136604L10.54 1.01374L10.0598 1.89088L18.3098 6.40776L18.79 5.53062ZM10.54 1.01374L11.02 0.136476C10.7073 -0.034641 10.3565 -0.124329 10 -0.124329V0.875671V1.87567C10.021 1.87567 10.0416 1.88095 10.06 1.89101L10.54 1.01374ZM10 0.875671V-0.124329C9.64351 -0.124329 9.29274 -0.0346413 8.98 0.136476L9.46 1.01374L9.94 1.89101C9.9584 1.88095 9.97903 1.87567 10 1.87567V0.875671ZM9.46 1.01374L8.97977 0.136604L0.729766 4.65348L1.21 5.53062L1.69023 6.40776L9.94023 1.89088L9.46 1.01374ZM1.21 5.53062L0.73 4.65335C0.395702 4.83626 0.116739 5.10571 -0.077668 5.43345L0.782411 5.94362L1.64249 6.45378C1.65393 6.4345 1.67033 6.41865 1.69 6.40789L1.21 5.53062ZM0.782411 5.94362L-0.077668 5.43345C-0.272074 5.7612 -0.37477 6.1352 -0.375 6.51627L0.625 6.51687L1.625 6.51747C1.62501 6.49506 1.63105 6.47306 1.64249 6.45378L0.782411 5.94362ZM0.625 6.51687H-0.375V15.4831H0.625H1.625V6.51687H0.625ZM0.625 15.4831L-0.375 15.4837C-0.37477 15.8648 -0.272074 16.2388 -0.077668 16.5665L0.782411 16.0564L1.64249 15.5462C1.63105 15.5269 1.62501 15.5049 1.625 15.4825L0.625 15.4831ZM0.782411 16.0564L-0.077668 16.5665C0.116739 16.8943 0.395702 17.1637 0.73 17.3466L1.21 16.4694L1.69 15.5921C1.67033 15.5813 1.65393 15.5655 1.64249 15.5462L0.782411 16.0564ZM1.21 16.4694L0.729766 17.3465L8.97976 21.8634L9.46 20.9862L9.94023 20.1091L1.69023 15.5922L1.21 16.4694ZM9.46 20.9862L8.97799 21.8624C9.29109 22.0347 9.64265 22.125 10 22.125V21.125V20.125C9.97972 20.125 9.95977 20.1199 9.94201 20.1101L9.46 20.9862ZM10 21.125V22.125C10.3573 22.125 10.7089 22.0347 11.022 21.8624L10.54 20.9862L10.058 20.1101C10.0402 20.1199 10.0203 20.125 10 20.125V21.125ZM10.54 20.9862L11.0202 21.8634L19.2702 17.3465L18.79 16.4694L18.3098 15.5922L10.0598 20.1091L10.54 20.9862ZM18.79 16.4694L19.27 17.3466C19.6043 17.1637 19.8833 16.8943 20.0777 16.5665L19.2176 16.0564L18.3575 15.5462C18.3461 15.5655 18.3297 15.5813 18.31 15.5921L18.79 16.4694ZM19.2176 16.0564L20.0777 16.5665C20.2721 16.2388 20.3748 15.8648 20.375 15.4837L19.375 15.4831L18.375 15.4825C18.375 15.5049 18.3689 15.5269 18.3575 15.5462L19.2176 16.0564ZM19.375 15.4831H20.375V6.51687H19.375H18.375V15.4831H19.375ZM19.375 6.51687L20.375 6.51627C20.3748 6.1352 20.2721 5.76121 20.0777 5.43345L19.2176 5.94362L18.3575 6.45378C18.3689 6.47306 18.375 6.49505 18.375 6.51747L19.375 6.51687ZM19.2176 5.94362L20.0777 5.43345C19.8833 5.1057 19.6043 4.83626 19.27 4.65335L18.79 5.53062L18.31 6.40789C18.3297 6.41865 18.3461 6.4345 18.3575 6.45378L19.2176 5.94362ZM9.82 1.67187L10.3073 2.5451C10.2134 2.59752 10.1076 2.62504 10 2.62504V1.62504V0.625043C9.7664 0.625043 9.53668 0.684804 9.33269 0.79864L9.82 1.67187ZM10 1.62504V2.62504C9.89242 2.62504 9.78663 2.59752 9.69269 2.5451L10.18 1.67187L10.6673 0.79864C10.4633 0.684804 10.2336 0.625043 10 0.625043V1.62504ZM10.18 1.67187L9.69973 2.54899L17.8325 7.00212L18.3128 6.12499L18.7931 5.24787L10.6603 0.794748L10.18 1.67187ZM18.3128 6.12499L17.8327 5.24778L14.2543 7.20621L14.7344 8.08343L15.2145 8.96065L18.7929 7.00221L18.3128 6.12499ZM14.7344 8.08343L15.3724 7.31342C15.3101 7.26182 15.2434 7.21581 15.173 7.17592L14.68 8.04593L14.187 8.91595C14.155 8.89781 14.1246 8.87689 14.0963 8.85345L14.7344 8.08343ZM14.68 8.04593L15.1602 7.16879L6.91023 2.65192L6.43 3.52906L5.94977 4.4062L14.1998 8.92307L14.68 8.04593ZM6.43 3.52906L6.91047 4.40607L10.3005 2.54888L9.82 1.67187L9.33953 0.794856L5.94953 2.65204L6.43 3.52906ZM10 10.6719L10.4799 9.79454L2.16707 5.24766L1.68719 6.12499L1.20731 7.00233L9.52012 11.5492L10 10.6719ZM1.68719 6.12499L2.16757 7.00206L6.12663 4.83362L5.64625 3.95656L5.16587 3.0795L1.20681 5.24793L1.68719 6.12499ZM5.64625 3.95656L5.16607 4.83373L13.4789 9.38435L13.9591 8.50718L14.4392 7.63001L6.12643 3.07939L5.64625 3.95656ZM13.9591 8.50718L13.4793 7.62977L9.52026 9.79446L10 10.6719L10.4797 11.5493L14.4388 9.38459L13.9591 8.50718ZM1.57 15.8094L2.05 14.9321C2.14816 14.9858 2.23011 15.0649 2.28728 15.1611L1.42763 15.672L0.567977 16.1829C0.693749 16.3945 0.874035 16.5685 1.09 16.6866L1.57 15.8094ZM1.42763 15.672L2.28728 15.1611C2.34445 15.2573 2.37474 15.3671 2.375 15.479L1.375 15.4812L0.375003 15.4835C0.375561 15.7297 0.442205 15.9712 0.567977 16.1829L1.42763 15.672ZM1.375 15.4812H2.375V6.80843H1.375H0.375V15.4812H1.375ZM1.375 6.80843L0.894919 7.68566L9.14492 12.2007L9.625 11.3234L10.1051 10.4462L1.85508 5.93121L1.375 6.80843ZM9.625 11.3234H8.625V20.2212H9.625H10.625V11.3234H9.625ZM9.625 20.2212L10.1054 19.3442L2.05038 14.9323L1.57 15.8094L1.08962 16.6864L9.14462 21.0983L9.625 20.2212ZM18.43 15.8094L17.9501 14.9321L9.89509 19.3383L10.375 20.2156L10.8549 21.0929L18.9099 16.6867L18.43 15.8094ZM10.375 20.2156H11.375V11.3234H10.375H9.375V20.2156H10.375ZM10.375 11.3234L10.8551 12.2007L14.6051 10.1485L14.125 9.27125L13.6449 8.39401L9.89493 10.4462L10.375 11.3234ZM14.125 9.27125H13.125V13.25H14.125H15.125V9.27125H14.125ZM14.125 13.25H13.125C13.125 13.6147 13.2699 13.9644 13.5277 14.2223L14.2348 13.5152L14.9419 12.8081C15.0592 12.9253 15.125 13.0842 15.125 13.25H14.125ZM14.2348 13.5152L13.5277 14.2223C13.7856 14.4801 14.1353 14.625 14.5 14.625V13.625V12.625C14.6658 12.625 14.8247 12.6908 14.9419 12.8081L14.2348 13.5152ZM14.5 13.625V14.625C14.8647 14.625 15.2144 14.4801 15.4723 14.2223L14.7652 13.5152L14.0581 12.8081C14.1753 12.6908 14.3342 12.625 14.5 12.625V13.625ZM14.7652 13.5152L15.4723 14.2223C15.7301 13.9644 15.875 13.6147 15.875 13.25H14.875H13.875C13.875 13.0842 13.9408 12.9253 14.0581 12.8081L14.7652 13.5152ZM14.875 13.25H15.875V8.86062H14.875H13.875V13.25H14.875ZM14.875 8.86062L15.3551 9.73785L19.1051 7.68567L18.625 6.80843L18.1449 5.9312L14.3949 7.98339L14.875 8.86062ZM18.625 6.80843H17.625V15.4831H18.625H19.625V6.80843H18.625ZM18.625 15.4831L17.625 15.4809C17.6253 15.3689 17.6556 15.2592 17.7127 15.163L18.5724 15.6738L19.432 16.1847C19.5578 15.9731 19.6244 15.7316 19.625 15.4854L18.625 15.4831ZM18.5724 15.6738L17.7127 15.163C17.7699 15.0668 17.8518 14.9877 17.95 14.934L18.43 15.8112L18.91 16.6885C19.126 16.5703 19.3063 16.3964 19.432 16.1847L18.5724 15.6738ZM18.43 15.8112H19.43V15.8094H18.43H17.43V15.8112H18.43Z" fill="#FFD673" mask="url(#path-1-inside-1_135_1387)"/>
</svg>
