<svg width="15" height="13" viewBox="0 0 15 13" fill="none" xmlns="http://www.w3.org/2000/svg">
<path d="M1.69334 1.14008L2.16668 0.666748L13.3333 11.8334L12.86 12.3067L10.6333 10.0734C9.72001 10.4534 8.72001 10.6667 7.66668 10.6667C4.62668 10.6667 2.00001 8.90008 0.76001 6.33342C1.40668 5.00008 2.42001 3.88675 3.66668 3.12008L1.69334 1.14008ZM7.66668 10.0001C8.52668 10.0001 9.35334 9.84675 10.1133 9.56008L9.36668 8.80675C8.88001 9.14008 8.30001 9.33342 7.66668 9.33342C6.00001 9.33342 4.66668 8.00008 4.66668 6.33342C4.66668 5.70008 4.86001 5.12008 5.19334 4.63341L4.16001 3.60675C3.04377 4.25706 2.12633 5.19987 1.50668 6.33342C2.69334 8.52008 5.00001 10.0001 7.66668 10.0001ZM13.8267 6.33342C12.64 4.14675 10.3333 2.66675 7.66668 2.66675C6.90001 2.66675 6.15334 2.79341 5.46001 3.02008L4.94001 2.50008C5.78668 2.17341 6.70668 2.00008 7.66668 2.00008C10.7067 2.00008 13.3333 3.76675 14.5733 6.33342C13.9675 7.59063 13.0292 8.65807 11.86 9.42008L11.38 8.93341C12.4 8.29341 13.2467 7.40008 13.8267 6.33342ZM7.66668 3.33341C9.33334 3.33341 10.6667 4.66675 10.6667 6.33342C10.6667 6.88008 10.52 7.38675 10.2667 7.82675L9.77334 7.33342C9.92001 7.02675 10 6.69341 10 6.33342C10 5.71458 9.75418 5.12108 9.31659 4.6835C8.87901 4.24591 8.28551 4.00008 7.66668 4.00008C7.30668 4.00008 6.97334 4.08008 6.66668 4.22675L6.17334 3.73342C6.61334 3.48008 7.12001 3.33341 7.66668 3.33341ZM5.33334 6.33342C5.33334 6.95225 5.57918 7.54575 6.01676 7.98333C6.45435 8.42092 7.04784 8.66675 7.66668 8.66675C8.11334 8.66675 8.52668 8.54008 8.88001 8.33342L5.66668 5.12008C5.46001 5.47341 5.33334 5.88675 5.33334 6.33342Z" fill="black"/>
</svg>
