<svg width="20" height="20" viewBox="0 0 20 20" fill="none" xmlns="http://www.w3.org/2000/svg">
<path d="M16.6666 0H3.33329C2.89127 0 2.46734 0.175595 2.15478 0.488155C1.84222 0.800716 1.66663 1.22464 1.66663 1.66667V18.3333C1.66663 18.7754 1.84222 19.1993 2.15478 19.5118C2.46734 19.8244 2.89127 20 3.33329 20H16.6666C17.1087 20 17.5326 19.8244 17.8451 19.5118C18.1577 19.1993 18.3333 18.7754 18.3333 18.3333V1.66667C18.3333 1.22464 18.1577 0.800716 17.8451 0.488155C17.5326 0.175595 17.1087 0 16.6666 0ZM16.6666 18.3333H3.33329V1.66667H16.6666V18.3333Z" fill="#FFD673"/>
<path d="M5 3.33337H15V5.00004H5V3.33337ZM5 6.66671H10.8333V8.33337H5V6.66671ZM6.66667 16.6667H13.3333L10 14.1667L6.66667 16.6667ZM15.8333 15.8334V10.8334L11.6667 13.3334L15.8333 15.8334ZM5 10.8334V15.8334L8.33333 13.3334L5 10.8334ZM13.3333 10H6.66667L10 12.5L13.3333 10Z" fill="#FFD673"/>
</svg>
