<svg width="20" height="18" viewBox="0 0 20 18" fill="none" xmlns="http://www.w3.org/2000/svg">
<path d="M10 18C8.89067 18 7.85134 17.7913 6.882 17.374C5.91267 16.9567 5.06534 16.3853 4.34 15.66C3.61467 14.9347 3.04334 14.0873 2.626 13.118C2.20867 12.1487 2 11.1093 2 10C2 8.89067 2.20867 7.85134 2.626 6.882C3.04334 5.91267 3.61467 5.06534 4.34 4.34C5.06534 3.61467 5.91267 3.04334 6.882 2.626C7.85134 2.20867 8.89067 2 10 2C11.1093 2 12.1487 2.20867 13.118 2.626C14.0873 3.04334 14.9347 3.61467 15.66 4.34C16.3853 5.06534 16.9567 5.91267 17.374 6.882C17.7913 7.85134 18 8.89067 18 10C18 11.1093 17.7913 12.1487 17.374 13.118C16.9567 14.0873 16.3853 14.935 15.66 15.661C14.9347 16.387 14.0873 16.958 13.118 17.374C12.1487 17.79 11.1093 17.9987 10 18ZM13.146 13.854L13.854 13.146L10.5 9.792V5H9.5V10.208L13.146 13.854ZM3.908 0.427002L4.615 1.134L1.135 4.615L0.427002 3.908L3.908 0.427002ZM16.092 0.427002L19.573 3.907L18.866 4.616L15.385 1.135L16.092 0.427002ZM10 17C11.9373 17 13.5883 16.3177 14.953 14.953C16.3177 13.5883 17 11.9373 17 10C17 8.06267 16.3177 6.41167 14.953 5.047C13.5883 3.68234 11.9373 3 10 3C8.06267 3 6.41167 3.68234 5.047 5.047C3.68234 6.41167 3 8.06267 3 10C3 11.9373 3.68234 13.5883 5.047 14.953C6.41167 16.3177 8.06267 17 10 17Z" fill="black"/>
</svg>
