<svg width="20" height="20" viewBox="0 0 20 20" fill="none" xmlns="http://www.w3.org/2000/svg">
<path d="M19.3699 13.7775C19.3702 13.7666 19.373 13.7566 19.373 13.7457V0.717815C19.3805 0.649377 19.378 0.578753 19.3617 0.507815C19.3083 0.216604 19.0545 -0.0043335 18.748 -0.0043335C18.633 -0.0043335 18.5264 0.0287915 18.4339 0.0831665L6.75672 3.12317C6.54641 3.17535 6.39047 3.33254 6.32641 3.52692C6.27797 3.61567 6.24828 3.71567 6.24828 3.82379V15.0063C5.65328 14.6082 4.89266 14.3685 4.06328 14.3685C2.15828 14.3685 0.613281 15.6304 0.613281 17.1863C0.613281 18.7425 2.15826 20.0047 4.06328 20.0047C5.96891 20.0047 7.51266 18.7429 7.51266 17.1863C7.51266 17.1069 7.50609 17.0288 7.49828 16.9509V4.22157L18.1233 1.45594V11.8809C17.5286 11.4828 16.7676 11.2431 15.9383 11.2431C14.0333 11.2431 12.4883 12.5053 12.4883 14.0609C12.4883 15.6172 14.0333 16.8794 15.9383 16.8794C17.8439 16.8794 19.3877 15.6175 19.3877 14.0609C19.3873 13.965 19.3814 13.8706 19.3698 13.7775H19.3699ZM4.07643 18.7491C2.77643 18.7491 1.87016 17.925 1.87016 17.1866C1.87016 16.4478 2.77609 15.625 4.07641 15.625C5.23328 15.625 6.07641 16.2772 6.24799 16.9416V16.9488C6.24799 17.0119 6.26018 17.0716 6.27768 17.1288C6.27895 17.1481 6.28207 17.1672 6.28207 17.1866C6.28207 17.925 5.37582 18.7491 4.07643 18.7491ZM15.9317 15.6241C14.6433 15.6241 13.7451 14.8003 13.7451 14.0616C13.7451 13.3228 14.6433 12.5 15.9317 12.5C17.2198 12.5 18.118 13.3228 18.118 14.0616C18.118 14.8003 17.2202 15.6241 15.9317 15.6241Z" fill="black"/>
</svg>
