<svg width="24" height="26" viewBox="0 0 24 26" fill="none" xmlns="http://www.w3.org/2000/svg">
<path d="M12 16.5C13.933 16.5 15.5 14.933 15.5 13C15.5 11.067 13.933 9.5 12 9.5C10.067 9.5 8.5 11.067 8.5 13C8.5 14.933 10.067 16.5 12 16.5Z" stroke="black" stroke-width="1.5"/>
<path d="M14.0591 1.51065C13.631 1.33331 13.0873 1.33331 12 1.33331C10.9126 1.33331 10.369 1.33331 9.94081 1.51065C9.65752 1.62791 9.40012 1.79986 9.18332 2.01666C8.96652 2.23346 8.79458 2.49086 8.67731 2.77415C8.56998 3.03431 8.52681 3.33881 8.51048 3.78098C8.50288 4.10056 8.41435 4.413 8.25316 4.68906C8.09197 4.96512 7.86339 5.19579 7.58881 5.35948C7.30975 5.51555 6.99566 5.59827 6.67593 5.5999C6.3562 5.60153 6.04128 5.52202 5.76064 5.36881C5.36864 5.16115 5.08514 5.04681 4.80398 5.00948C4.19068 4.92883 3.57046 5.095 3.07964 5.47148C2.71331 5.75498 2.44031 6.22515 1.89664 7.16665C1.35298 8.10815 1.07998 8.57831 1.02048 9.03915C0.980384 9.34301 1.00055 9.65179 1.07982 9.94786C1.15909 10.2439 1.29592 10.5215 1.48248 10.7646C1.65514 10.9886 1.89664 11.1765 2.27114 11.4121C2.82298 11.7586 3.17764 12.349 3.17764 13C3.17764 13.651 2.82298 14.2413 2.27114 14.5866C1.89664 14.8235 1.65398 15.0113 1.48248 15.2353C1.29592 15.4785 1.15909 15.756 1.07982 16.0521C1.00055 16.3482 0.980384 16.657 1.02048 16.9608C1.08114 17.4205 1.35298 17.8918 1.89548 18.8333C2.44031 19.7748 2.71214 20.245 3.07964 20.5285C3.32282 20.715 3.60037 20.8519 3.89643 20.9311C4.1925 21.0104 4.50128 21.0306 4.80514 20.9905C5.08514 20.9531 5.36864 20.8388 5.76064 20.6311C6.04128 20.4779 6.3562 20.3984 6.67593 20.4001C6.99566 20.4017 7.30975 20.4844 7.58881 20.6405C8.15231 20.9671 8.48714 21.568 8.51048 22.219C8.52681 22.6623 8.56881 22.9656 8.67731 23.2258C8.79458 23.5091 8.96652 23.7665 9.18332 23.9833C9.40012 24.2001 9.65752 24.372 9.94081 24.4893C10.369 24.6666 10.9126 24.6666 12 24.6666C13.0873 24.6666 13.631 24.6666 14.0591 24.4893C14.3424 24.372 14.5998 24.2001 14.8166 23.9833C15.0334 23.7665 15.2054 23.5091 15.3226 23.2258C15.43 22.9656 15.4731 22.6623 15.4895 22.219C15.5128 21.568 15.8476 20.966 16.4111 20.6405C16.6902 20.4844 17.0043 20.4017 17.324 20.4001C17.6438 20.3984 17.9587 20.4779 18.2393 20.6311C18.6313 20.8388 18.9148 20.9531 19.1948 20.9905C19.4987 21.0306 19.8075 21.0104 20.1035 20.9311C20.3996 20.8519 20.6771 20.715 20.9203 20.5285C21.2878 20.2461 21.5596 19.7748 22.1033 18.8333C22.647 17.8918 22.92 17.4216 22.9795 16.9608C23.0196 16.657 22.9994 16.3482 22.9201 16.0521C22.8409 15.756 22.704 15.4785 22.5175 15.2353C22.3448 15.0113 22.1033 14.8235 21.7288 14.5878C21.4557 14.4214 21.2293 14.1885 21.0708 13.9108C20.9122 13.6331 20.8267 13.3197 20.8223 13C20.8223 12.349 21.177 11.7586 21.7288 11.4133C22.1033 11.1765 22.346 10.9886 22.5175 10.7646C22.704 10.5215 22.8409 10.2439 22.9201 9.94786C22.9994 9.65179 23.0196 9.34301 22.9795 9.03915C22.9188 8.57948 22.647 8.10815 22.1045 7.16665C21.5596 6.22515 21.2878 5.75498 20.9203 5.47148C20.6771 5.28492 20.3996 5.1481 20.1035 5.06882C19.8075 4.98955 19.4987 4.96939 19.1948 5.00948C18.9148 5.04681 18.6313 5.16115 18.2381 5.36881C17.9576 5.52181 17.6429 5.60121 17.3234 5.59958C17.0039 5.59794 16.6901 5.51534 16.4111 5.35948C16.1366 5.19579 15.908 4.96512 15.7468 4.68906C15.5856 4.413 15.4971 4.10056 15.4895 3.78098C15.4731 3.33765 15.4311 3.03431 15.3226 2.77415C15.2054 2.49086 15.0334 2.23346 14.8166 2.01666C14.5998 1.79986 14.3424 1.62791 14.0591 1.51065Z" stroke="black" stroke-width="1.5"/>
</svg>
