<svg width="20" height="20" viewBox="0 0 20 20" fill="none" xmlns="http://www.w3.org/2000/svg">
<path d="M9.9999 2.19999C12.0686 2.19999 14.0526 3.02178 15.5153 4.48456C16.9781 5.94734 17.7999 7.93131 17.7999 9.99999C17.7999 12.0687 16.9781 14.0526 15.5153 15.5154C14.0526 16.9782 12.0686 17.8 9.9999 17.8V2.19999ZM9.9999 0.399994C7.45382 0.399994 5.01203 1.41142 3.21168 3.21177C1.41133 5.01212 0.399902 7.45392 0.399902 9.99999C0.399902 12.5461 1.41133 14.9879 3.21168 16.7882C5.01203 18.5886 7.45382 19.6 9.9999 19.6C12.546 19.6 14.9878 18.5886 16.7881 16.7882C18.5885 14.9879 19.5999 12.5461 19.5999 9.99999C19.5999 7.45392 18.5885 5.01212 16.7881 3.21177C14.9878 1.41142 12.546 0.399994 9.9999 0.399994Z" fill="black"/>
</svg>
