<svg width="22" height="22" viewBox="0 0 22 22" fill="none" xmlns="http://www.w3.org/2000/svg">
<path d="M20.462 14.754V18.4946C20.4621 18.8236 20.4098 19.1494 20.3082 19.4533C20.2065 19.7573 20.0574 20.0335 19.8695 20.2661C19.6816 20.4988 19.4585 20.6834 19.213 20.8093C18.9674 20.9352 18.7042 21 18.4385 21H3.02359C2.7578 21 2.49462 20.9352 2.24908 20.8093C2.00353 20.6834 1.78043 20.4988 1.59251 20.2661C1.4046 20.0335 1.25555 19.7573 1.15389 19.4533C1.05222 19.1494 0.999933 18.8236 1 18.4946V3.5054C0.999933 3.17636 1.05224 2.85053 1.15394 2.54652C1.25564 2.24252 1.40473 1.96629 1.5927 1.73363C1.78066 1.50096 2.00383 1.31642 2.24943 1.19054C2.49504 1.06466 2.75827 0.999917 3.0241 1H18.4385C18.7042 1 18.9674 1.06481 19.213 1.19072C19.4585 1.31664 19.6816 1.5012 19.8695 1.73385C20.0574 1.96651 20.2065 2.24271 20.3082 2.54667C20.4098 2.85063 20.4621 3.17641 20.462 3.5054V7.37616" stroke="black" stroke-width="2" stroke-linecap="round" stroke-linejoin="round"/>
<path d="M20.3816 14.761H15.0641C14.672 14.7612 14.2837 14.6657 13.9214 14.4801C13.5591 14.2944 13.2299 14.0222 12.9527 13.679C12.6754 13.3358 12.4555 12.9283 12.3055 12.4799C12.1555 12.0315 12.0784 11.5508 12.0785 11.0655C12.0783 10.5801 12.1554 10.0994 12.3053 9.65084C12.4553 9.20233 12.6752 8.79479 12.9525 8.45152C13.2298 8.10826 13.559 7.83599 13.9213 7.65029C14.2836 7.46459 14.672 7.3691 15.0641 7.36926H20.3821C20.7231 7.36926 21 7.71203 21 8.13478V13.9962C21 14.4183 20.7231 14.761 20.3816 14.761Z" stroke="black" stroke-width="2" stroke-linecap="round" stroke-linejoin="round"/>
<path d="M15.3375 12.8255C16.1036 12.8255 16.7247 12.0568 16.7247 11.1085C16.7247 10.1602 16.1036 9.39148 15.3375 9.39148C14.5714 9.39148 13.9503 10.1602 13.9503 11.1085C13.9503 12.0568 14.5714 12.8255 15.3375 12.8255Z" stroke="black" stroke-width="2" stroke-linecap="round" stroke-linejoin="round"/>
</svg>
