<svg width="18" height="18" viewBox="0 0 18 18" fill="none" xmlns="http://www.w3.org/2000/svg">
<path fill-rule="evenodd" clip-rule="evenodd" d="M2.05447 17.9995C3.53647 17.9245 4.46197 17.5125 5.03697 16.9035C5.23797 17.1905 5.58697 17.3585 5.96547 17.2995C7.95247 16.9895 12.3805 16.1735 17.357 14.4525C17.544 14.3934 17.7073 14.2762 17.8232 14.1179C17.9391 13.9597 18.0015 13.7687 18.0015 13.5725C18.0015 13.3764 17.9391 13.1854 17.8232 13.0271C17.7073 12.8689 17.544 12.7517 17.357 12.6925C16.7926 12.4979 16.2365 12.3144 15.6885 12.142C16.681 11.6185 17.4425 10.74 17.7405 9.62503C18.413 7.11253 16.648 4.92653 14.3575 5.62203C14.196 4.46903 14.57 3.40703 15.5515 2.83953L15.0515 1.97253C13.8375 2.67403 13.3275 3.87453 13.323 5.10403C12.4625 4.44553 11.4195 4.42053 10.533 4.88403C10.5292 4.73557 10.5081 4.58807 10.47 4.44453C10.3175 3.87403 9.90998 3.46653 9.34997 3.23203C9.23497 2.70403 8.96997 2.06303 8.46947 1.58503C7.88947 1.03203 7.05647 0.757032 5.97097 1.02403C5.7041 0.659166 5.34572 0.371145 4.93197 0.189032C4.26447 -0.098468 3.42597 -0.092468 2.47997 0.452032C1.49147 0.914532 1.01497 1.59503 0.883475 2.30853C0.794475 2.79353 0.871975 3.25353 0.999475 3.61653C0.160475 4.35203 -0.0920254 5.19203 0.0284746 5.98353C0.132975 6.66803 0.505974 7.25303 0.871974 7.65003C0.742974 8.24353 0.843475 8.81053 1.22297 9.26303C1.32097 9.37936 1.43264 9.4832 1.55797 9.57453C1.55573 9.59479 1.55473 9.61516 1.55497 9.63553C1.56647 10.5645 1.61947 11.299 1.80997 11.87C1.19597 12.1045 0.616974 12.581 0.0889745 13.3C0.0307806 13.3791 -0.000610352 13.4746 -0.000610352 13.5728C-0.000610352 13.6709 0.0307806 13.7665 0.0889745 13.8455C0.612475 14.5585 1.18647 15.0335 1.79497 15.2695C1.63297 15.8235 1.56997 16.5525 1.55547 17.5085C1.55392 17.5741 1.56582 17.6393 1.59046 17.7001C1.61509 17.7609 1.65192 17.816 1.69868 17.8621C1.74544 17.9081 1.80114 17.944 1.86234 17.9677C1.92353 17.9913 1.98892 18.0021 2.05447 17.9995ZM5.95997 13.5725C5.95997 14.0875 5.93997 14.6025 5.85797 15.09V16.303C6.34297 16.2265 6.97147 16.1205 7.71497 15.9785V14.1275H8.71497V15.78C10.4172 15.4283 12.1056 15.0123 13.7765 14.533V13.573H14.7765V14.238C15.448 14.033 16.1365 13.812 16.8365 13.573C15.8773 13.2449 14.9103 12.9398 13.9365 12.658L13.8815 12.663L12.235 12.189C11.9756 12.1214 11.7206 12.0564 11.47 11.994V14.1275H10.47V11.752C8.94421 11.3928 7.40585 11.0892 5.85797 10.842V12.055C5.93947 12.5425 5.95997 13.0575 5.95997 13.5725ZM4.85797 15.0025V12.1425C4.78797 11.7625 4.67547 11.441 4.50347 11.176C4.24097 10.7715 3.73547 10.351 2.56947 10.196C2.59497 10.8075 2.65247 11.236 2.75797 11.5525L3.06197 12.4635L2.16597 12.8055C1.85447 12.9245 1.50947 13.1615 1.15047 13.5725C1.50547 13.9795 1.84797 14.216 2.15647 14.336L3.01297 14.669L2.75447 15.5515C2.65947 15.876 2.60047 16.3205 2.57197 16.9485C3.73647 16.7935 4.24097 16.3735 4.50347 15.9695C4.67547 15.7045 4.78797 15.383 4.85847 15.003M5.33197 9.96803C4.75947 9.52403 4.07647 9.17803 3.24147 9.10553C2.56447 9.04653 2.17497 8.84053 1.98897 8.61903C1.82397 8.42253 1.74647 8.12553 1.90547 7.66553L2.01447 7.35053L1.76647 7.12853C1.44897 6.84453 1.09747 6.35703 1.01747 5.83303C0.946474 5.36503 1.07597 4.77503 1.90497 4.17453L2.26247 3.91603L2.05047 3.52853C1.91547 3.28203 1.79547 2.88353 1.86747 2.49053C1.93347 2.13253 2.17297 1.69653 2.92047 1.35153L2.94247 1.34153L2.96297 1.32953C3.67497 0.914532 4.18797 0.958532 4.53797 1.10953C4.91697 1.27203 5.18147 1.59453 5.29997 1.83453L5.49547 2.22953L5.91147 2.08603C6.87897 1.75103 7.43697 1.98303 7.77997 2.31053C8.16347 2.67653 8.36097 3.24453 8.41197 3.66703L8.45147 3.99703L8.77147 4.08853C9.23947 4.22203 9.43847 4.45603 9.50497 4.70403C9.57997 4.98353 9.52497 5.42053 9.18497 6.00803C8.92915 6.45313 8.76875 6.94659 8.71397 7.45703C8.55547 8.24353 8.64897 9.03603 8.94547 9.75803C8.98947 9.93553 9.03547 10.107 9.07897 10.27L9.09647 10.334C9.10514 10.3654 9.11264 10.3964 9.11897 10.427C7.79297 10.149 6.70897 9.96203 5.96647 9.84603C5.74705 9.8112 5.52286 9.85437 5.33197 9.96803ZM14.027 11.643C13.0283 11.3569 12.0234 11.0931 11.013 10.852C10.5263 10.4835 10.1422 9.99632 9.89747 9.43703C9.74747 8.81403 9.64397 8.20653 9.69997 7.62453C9.70997 7.57553 9.72164 7.52653 9.73497 7.47753C10.0115 6.44453 10.6815 5.83103 11.32 5.63903C11.914 5.46053 12.6025 5.60253 13.16 6.36103L13.6335 7.00603L14.3665 6.68503C15.228 6.30703 15.8945 6.52853 16.32 6.98053C16.7775 7.46703 17.051 8.33303 16.775 9.36653C16.4565 10.5555 15.3745 11.4515 14.027 11.643Z" fill="#FFD673"/>
</svg>
